<svg width="62" height="72" viewBox="0 0 62 72" fill="none" xmlns="http://www.w3.org/2000/svg">
<path d="M47.6841 44.1127C47.6639 44.1044 47.6435 44.0969 47.623 44.0899C45.6387 43.3529 44.0578 43.1134 43.8536 43.0661C43.7158 42.6204 43.4842 42.1981 43.158 41.8319C41.5814 40.063 39.6904 39.0891 38.6672 38.6542V37.3641C40.9021 35.7579 42.4688 33.6507 43.1251 30.4501H44.3773C46.3255 30.4501 47.9107 28.8651 47.9107 26.9169V24.7874C47.9107 23.2057 46.8658 21.8633 45.4277 21.4143V18.3267C45.8549 18.038 46.1493 17.5846 46.2358 17.0756L47.0081 12.5341L51.7077 10.7501V12.2908C50.8459 12.4161 50.1562 13.1047 50.053 13.9929L49.4965 18.7908C49.363 19.9439 50.2639 20.9643 51.4326 20.9643H54.0918C55.2528 20.9643 56.1627 19.9516 56.028 18.7905L55.4715 13.9929C55.3684 13.1049 54.6787 12.4161 53.8168 12.2908V8.98118C53.8168 8.97991 53.8169 8.97879 53.8169 8.97752C53.8168 8.38732 53.4602 7.87066 52.9085 7.66141L47.1378 5.47089C46.5929 5.26389 45.9841 5.53811 45.7774 6.08261C45.5707 6.62725 45.8446 7.2363 46.3891 7.44302L50.4329 8.97794L46.169 10.5965C46.0141 10.4978 45.8429 10.4193 45.657 10.3677C35.8808 7.65663 26.3763 7.65691 16.6009 10.3677C16.415 10.4192 16.2437 10.4978 16.0888 10.5965L11.8249 8.97794L28.7855 2.53971C30.2964 1.96596 31.9613 1.96582 33.4727 2.53971L41.7735 5.69069C42.3184 5.89783 42.9271 5.62347 43.1339 5.07897C43.3406 4.53433 43.0667 3.92529 42.5222 3.71857L34.2214 0.567723C32.227 -0.189261 30.0309 -0.189261 28.0368 0.567723L9.34975 7.66127C8.7978 7.87066 8.44117 8.38732 8.44117 8.97752C8.44103 9.56772 8.79752 10.0847 9.34961 10.2943L15.2501 12.5341L16.0225 17.0754C16.109 17.5845 16.4035 18.038 16.8307 18.3266V21.4134C15.3937 21.8617 14.3477 23.2047 14.3477 24.7873V26.9168C14.3477 28.8648 15.9327 30.45 17.881 30.45H19.1336C19.736 33.4702 21.1776 35.5506 23.3332 37.1738V38.6542C22.3099 39.089 20.4189 40.0631 18.8426 41.8319C18.5164 42.1979 18.2848 42.6202 18.147 43.066C18.0965 43.0777 16.0121 43.4194 14.3161 44.1127C6.08795 47.1978 0.419922 55.1332 0.419922 64.1592V66.619C0.419922 69.5861 2.83389 72 5.80094 72H56.1995C59.1666 72 61.5805 69.5861 61.5805 66.619V64.1592C61.5805 55.1329 55.9124 47.1976 47.6841 44.1127ZM53.3928 14.3779L53.912 18.855H51.6126L52.1318 14.3779H53.3928ZM39.1807 41.2802C39.9379 41.7316 40.8126 42.371 41.583 43.2353C41.9542 43.6521 41.9932 44.2624 41.6936 44.7127C41.6934 44.7133 41.6931 44.7138 41.6927 44.7144C41.69 44.7183 41.6875 44.7223 41.6849 44.7264L37.5313 50.9285C37.5311 50.9288 37.5309 50.9291 37.5307 50.9293C37.1731 51.4633 36.466 51.6146 35.9215 51.2741C34.9169 50.6464 33.3781 49.6849 32.7638 49.3012L37.5448 45.0713C38.6415 44.1007 39.221 42.6973 39.1807 41.2802ZM35.8518 53.4912C35.5061 54.0328 35.004 54.8197 34.2747 55.9627L33.5969 54.0042L34.4478 52.8404C34.6784 52.967 35.0995 53.326 35.8518 53.4912ZM36.8898 40.4328C37.3045 41.5023 37.006 42.7315 36.147 43.4914L31.0002 48.0448L25.8536 43.4914C24.9946 42.7315 24.696 41.5024 25.1109 40.4329C25.2679 39.9454 25.4426 39.7323 25.4426 39.3801V38.4854C28.8788 40.1989 32.9531 40.3078 36.5577 38.6083V39.3801C36.5577 39.6502 36.6427 39.7887 36.8898 40.4328ZM31.0002 50.6865L32.654 51.7198L31.8841 52.7728H30.1164L29.3465 51.7198L31.0002 50.6865ZM30.3321 54.8822H31.6685L32.8275 58.231C32.5406 58.6807 32.2327 59.1633 31.9007 59.6838C31.482 60.3454 30.5224 60.3515 30.098 59.6804C29.7667 59.1612 29.4595 58.6797 29.1732 58.231L30.3321 54.8822ZM43.3181 21.2541H42.1172C41.4987 21.2541 40.9329 20.7996 40.9329 20.1413V17.9227C41.7263 18.0789 42.5212 18.2537 43.3181 18.4476V21.2541ZM45.8012 24.7874V26.9169C45.8012 27.702 45.1623 28.3407 44.3772 28.3407H43.3877C43.425 27.6153 43.3948 28.5642 43.406 23.3635H44.3728C44.3735 23.3635 44.3742 23.3633 44.3751 23.3633C44.3759 23.3633 44.3765 23.3635 44.3773 23.3635C45.1623 23.3635 45.8012 24.0023 45.8012 24.7874ZM44.9003 12.347L44.1956 16.4904C35.4403 14.2991 26.8881 14.2812 18.0625 16.4903L17.3578 12.347C26.6222 9.81185 35.6355 9.81185 44.9003 12.347ZM17.881 28.3409C17.0959 28.3409 16.4571 27.7022 16.4571 26.9171V24.7876C16.4571 24.0025 17.0959 23.3636 17.881 23.3636H17.8854H18.856C18.8722 28.4368 18.8388 27.5386 18.8789 28.3409H17.881ZM18.9401 21.2541V18.4475C19.737 18.2536 20.532 18.0786 21.3254 17.9225C21.324 20.2894 21.3285 20.1509 21.3214 20.2427C21.2769 20.8098 20.7582 21.2541 20.1412 21.2541C20.1192 21.2541 18.8602 21.2541 18.9401 21.2541ZM20.9686 27.8502L20.9654 23.2573C22.2934 22.9194 23.3155 21.7903 23.4242 20.4086C23.4428 20.1742 23.4312 20.2641 23.4348 17.5513C28.5818 16.7528 33.6765 16.7528 38.8236 17.5514C38.8271 20.2334 38.8156 20.1751 38.8342 20.4082C38.943 21.7914 39.9669 22.9213 41.2968 23.2581C41.2972 29.442 41.2848 27.5229 41.2975 27.8986C40.9606 40.9552 21.2608 40.9921 20.9686 27.8502ZM20.4175 43.2353C21.1877 42.3709 22.0625 41.7315 22.8198 41.2801C22.7796 42.697 23.359 44.1007 24.456 45.0713L29.2369 49.3012C28.5915 49.7017 27.7345 50.2358 26.0792 51.2741C25.5348 51.6145 24.8281 51.4633 24.4703 50.9298L20.3158 44.7264C20.3132 44.7223 20.3105 44.7183 20.3078 44.7143C20.3075 44.7138 20.3073 44.7133 20.307 44.7129C20.0135 44.2719 20.0392 43.6599 20.4175 43.2353ZM28.4036 54.0044L27.7258 55.9629C26.9964 54.8197 26.4942 54.0328 26.1485 53.4912C26.8995 53.3263 27.314 52.9713 27.5527 52.8407L28.4036 54.0044ZM59.4712 66.619C59.4712 68.4231 58.0036 69.8906 56.1995 69.8906H50.725V62.6507C50.725 62.0681 50.2529 61.596 49.6703 61.596C49.0877 61.596 48.6156 62.0681 48.6156 62.6507V69.8906H13.3848V62.6507C13.3848 62.0681 12.9128 61.596 12.3302 61.596C11.7475 61.596 11.2755 62.0681 11.2755 62.6507V69.8906H5.80094C3.99686 69.8906 2.5293 68.4231 2.5293 66.619V64.1592C2.5293 56.3054 7.28987 49.3678 14.2912 46.3939L17.4578 51.4152C17.6583 51.7333 18.0007 51.9074 18.3509 51.9074C18.5431 51.9074 18.7379 51.8548 18.9125 51.7447C19.4051 51.434 19.5528 50.7827 19.242 50.2899L16.3239 45.6626C17.3222 45.3656 18.0069 45.2467 18.2063 45.2029C18.5866 46.2409 18.0827 44.77 28.3175 60.8116C29.5656 62.785 32.439 62.7787 33.6811 60.815C41.6987 48.2473 43.4311 45.8999 43.4451 45.8886C43.5881 45.6742 43.7175 45.4125 43.7943 45.2028C44.0109 45.2502 44.6469 45.3561 45.6767 45.6624L35.4268 61.9154C33.3892 65.1464 28.6107 65.1455 26.5738 61.9154L21.8731 54.4616C21.5625 53.9688 20.9111 53.8214 20.4183 54.1321C19.9257 54.4427 19.7781 55.0941 20.0889 55.5868L24.7895 63.0407C27.6549 67.584 34.3456 67.5841 37.2108 63.0407L47.7092 46.3935C54.7105 49.3674 59.471 56.305 59.471 64.1589V66.619H59.4712Z" fill="black"/>
</svg>
