<svg width="24" height="24" viewBox="0 0 24 24" fill="none" xmlns="http://www.w3.org/2000/svg">
<path fill-rule="evenodd" clip-rule="evenodd" d="M2.06836 6C2.06836 5.44772 2.51468 5 3.06524 5H21.0092C21.5597 5 22.0061 5.44772 22.0061 6C22.0061 6.55228 21.5597 7 21.0092 7H3.06524C2.51468 7 2.06836 6.55228 2.06836 6ZM2.06836 12C2.06836 11.4477 2.51468 11 3.06524 11H21.0092C21.5597 11 22.0061 11.4477 22.0061 12C22.0061 12.5523 21.5597 13 21.0092 13H3.06524C2.51468 13 2.06836 12.5523 2.06836 12ZM2.06836 18C2.06836 17.4477 2.51468 17 3.06524 17H21.0092C21.5597 17 22.0061 17.4477 22.0061 18C22.0061 18.5523 21.5597 19 21.0092 19H3.06524C2.51468 19 2.06836 18.5523 2.06836 18Z" fill="black"/>
</svg>
